<svg width="52" height="52" viewBox="0 0 52 52" fill="none" xmlns="http://www.w3.org/2000/svg">
<circle cx="26" cy="26" r="26" fill="#4ADB61"/>
<rect width="22.8293" height="22.8293" transform="translate(14.9014 14.8984)" fill="#4ADB61"/>
<path d="M20.6086 34.874H17.7549C17.5027 34.874 17.2607 34.7737 17.0823 34.5953C16.9039 34.417 16.8037 34.175 16.8037 33.9227V26.313C16.8037 26.0607 16.9039 25.8188 17.0823 25.6404C17.2607 25.462 17.5027 25.3618 17.7549 25.3618H20.6086C20.8609 25.3618 21.1028 25.462 21.2812 25.6404C21.4596 25.8188 21.5598 26.0607 21.5598 26.313V33.9227C21.5598 34.175 21.4596 34.417 21.2812 34.5953C21.1028 34.7737 20.8609 34.874 20.6086 34.874ZM27.2671 34.874H24.4135C24.1612 34.874 23.9192 34.7737 23.7409 34.5953C23.5625 34.417 23.4622 34.175 23.4622 33.9227V17.752C23.4622 17.4997 23.5625 17.2578 23.7409 17.0794C23.9192 16.901 24.1612 16.8008 24.4135 16.8008H27.2671C27.5194 16.8008 27.7614 16.901 27.9397 17.0794C28.1181 17.2578 28.2183 17.4997 28.2183 17.752V33.9227C28.2183 34.175 28.1181 34.417 27.9397 34.5953C27.7614 34.7737 27.5194 34.874 27.2671 34.874ZM33.9257 34.874H31.072C30.8197 34.874 30.5778 34.7737 30.3994 34.5953C30.221 34.417 30.1208 34.175 30.1208 33.9227V23.4593C30.1208 23.207 30.221 22.9651 30.3994 22.7867C30.5778 22.6083 30.8197 22.5081 31.072 22.5081H33.9257C34.1779 22.5081 34.4199 22.6083 34.5983 22.7867C34.7767 22.9651 34.8769 23.207 34.8769 23.4593V33.9227C34.8769 34.175 34.7767 34.417 34.5983 34.5953C34.4199 34.7737 34.1779 34.874 33.9257 34.874Z" fill="white"/>
</svg>
